<svg xmlns="http://www.w3.org/2000/svg" viewBox="0 0 512 512" role="img" aria-labelledby="icon512Title">
  <title id="icon512Title">Imole app icon — 512px</title>
  <desc>The glowing African sunburst mark centered on the card background.</desc>
  <defs>
    <radialGradient id="i512-halo" cx="0.5" cy="0.5" r="0.5">
      <stop offset="0" stop-color="#FF8A00" stop-opacity="0.6"/>
      <stop offset="0.6" stop-color="#FF8A00" stop-opacity="0.2"/>
      <stop offset="1" stop-color="#FF8A00" stop-opacity="0"/>
    </radialGradient>
    <radialGradient id="i512-core" cx="0.5" cy="0.5" r="0.5">
      <stop offset="0" stop-color="#FFFFFF"/>
      <stop offset="0.5" stop-color="#FFC66B"/>
      <stop offset="1" stop-color="#FF8A00"/>
    </radialGradient>
    <g id="r-512">
      <line x1="256" y1="52" x2="256" y2="6" stroke="#FF8A00" stroke-width="26" stroke-linecap="round"/>
    </g>
    <g id="rs-512">
      <line x1="256" y1="42" x2="256" y2="18" stroke="#FFC66B" stroke-width="16" stroke-linecap="round"/>
    </g>
    <g id="b-512">
      <circle cx="256" cy="138" r="12" fill="#FF8A00"/>
    </g>
  </defs>
  <rect width="512" height="512" rx="120" fill="#F6F9FF"/>
  <circle cx="256" cy="256" r="198" fill="url(#i512-halo)"/>
  <use href="#r-512"/><use href="#r-512" transform="rotate(45 256 256)"/>
  <use href="#r-512" transform="rotate(90 256 256)"/><use href="#r-512" transform="rotate(135 256 256)"/>
  <use href="#r-512" transform="rotate(180 256 256)"/><use href="#r-512" transform="rotate(225 256 256)"/>
  <use href="#r-512" transform="rotate(270 256 256)"/><use href="#r-512" transform="rotate(315 256 256)"/>
  <use href="#rs-512" transform="rotate(22.5 256 256)"/><use href="#rs-512" transform="rotate(67.5 256 256)"/>
  <use href="#rs-512" transform="rotate(112.5 256 256)"/><use href="#rs-512" transform="rotate(157.5 256 256)"/>
  <use href="#rs-512" transform="rotate(202.5 256 256)"/><use href="#rs-512" transform="rotate(247.5 256 256)"/>
  <use href="#rs-512" transform="rotate(292.5 256 256)"/><use href="#rs-512" transform="rotate(337.5 256 256)"/>
  <circle cx="256" cy="256" r="156" fill="#FFF4E6" stroke="#002444" stroke-width="18"/>
  <use href="#b-512"/><use href="#b-512" transform="rotate(45 256 256)"/>
  <use href="#b-512" transform="rotate(90 256 256)"/><use href="#b-512" transform="rotate(135 256 256)"/>
  <use href="#b-512" transform="rotate(180 256 256)"/><use href="#b-512" transform="rotate(225 256 256)"/>
  <use href="#b-512" transform="rotate(270 256 256)"/><use href="#b-512" transform="rotate(315 256 256)"/>
  <circle cx="256" cy="256" r="64" fill="url(#i512-core)"/>
  <circle cx="256" cy="256" r="24" fill="#FFFFFF"/>
</svg>